<?xml version="1.0" standalone="no"?>
<!DOCTYPE svg PUBLIC "-//W3C//DTD SVG 20010904//EN"
 "http://www.w3.org/TR/2001/REC-SVG-20010904/DTD/svg10.dtd">
<svg version="1.0" xmlns="http://www.w3.org/2000/svg"
 width="1024.000000pt" height="1024.000000pt" viewBox="0 0 1024.000000 1024.000000"
 preserveAspectRatio="xMidYMid meet">

<g transform="translate(0.000000,1024.000000) scale(0.100000,-0.100000)"
fill="#000000" stroke="none">
<path d="M0 5120 l0 -5120 5120 0 5120 0 0 5120 0 5120 -5120 0 -5120 0 0
-5120z m5510 3465 c562 -59 1104 -259 1593 -587 394 -264 785 -678 1037 -1097
264 -440 416 -904 480 -1471 26 -230 10 -640 -36 -915 -111 -664 -443 -1312
-929 -1814 -569 -587 -1283 -947 -2090 -1053 -248 -32 -671 -32 -900 0 -398
57 -732 157 -1070 322 -1020 499 -1753 1460 -1935 2540 -38 226 -45 323 -45
600 0 277 7 371 45 596 153 901 695 1745 1462 2277 471 326 1041 539 1613 601
176 19 603 20 775 1z"/>
<path d="M4910 8373 c-224 -17 -469 -59 -680 -118 -1237 -344 -2166 -1395
-2361 -2670 -27 -175 -38 -614 -20 -788 79 -767 403 -1440 959 -1994 433 -431
981 -735 1582 -877 251 -59 368 -71 725 -70 287 0 348 3 472 22 741 113 1396
451 1912 987 634 660 957 1528 902 2422 -16 262 -45 435 -112 688 -146 542
-420 1014 -829 1426 -217 219 -412 372 -658 518 -515 306 -1096 465 -1682 459
-91 -1 -185 -3 -210 -5z m-1560 -1788 c26 -44 100 -174 165 -288 l117 -208 80
143 c43 79 115 209 160 291 l80 147 109 0 c60 0 109 -4 109 -8 0 -5 -88 -162
-196 -348 -108 -186 -204 -356 -215 -376 -17 -34 -19 -61 -19 -308 l0 -270
-110 0 -110 0 0 263 0 263 -225 388 c-124 214 -225 390 -225 393 0 2 53 2 117
1 l116 -3 47 -80z m3444 -305 c75 -29 137 -86 167 -153 26 -58 27 -75 32 -514
l3 -253 -98 0 -98 0 0 45 0 46 -46 -32 c-144 -99 -357 -106 -476 -16 -58 45
-89 104 -96 182 -15 199 93 295 367 325 113 12 193 33 216 56 21 21 19 73 -5
111 -29 49 -73 68 -155 67 -85 0 -146 -28 -177 -80 l-20 -34 -93 0 c-52 0 -96
4 -99 9 -11 18 26 114 59 150 40 44 112 85 186 106 81 22 256 15 333 -15z
m-2374 -320 c5 -312 6 -337 25 -369 30 -51 67 -74 128 -79 67 -5 118 10 163
51 69 60 68 58 74 412 l5 320 103 0 102 0 0 -465 0 -465 -95 -3 -95 -3 0 56
c0 30 -2 55 -3 55 -2 0 -23 -19 -47 -41 -70 -67 -118 -84 -235 -84 -89 0 -107
3 -163 29 -69 32 -114 77 -146 145 -20 44 -21 64 -24 414 l-3 368 103 -3 103
-3 5 -335z m1111 -14 c65 -191 120 -350 123 -353 2 -3 48 129 101 294 53 164
106 324 117 356 l21 57 103 0 c67 0 104 -4 104 -11 0 -5 -33 -103 -74 -217
-227 -630 -306 -843 -332 -896 -61 -126 -159 -186 -299 -186 l-75 0 0 80 0 80
38 0 c56 1 117 33 151 80 46 64 47 91 8 195 -126 328 -327 863 -327 868 0 4
50 6 111 5 l111 -3 119 -349z m-2858 -888 c2 -7 43 -112 90 -233 47 -121 119
-305 160 -410 41 -104 80 -209 87 -232 12 -39 30 -59 30 -32 0 10 124 331 282
729 l74 185 114 0 115 0 3 -622 2 -623 -102 0 -101 0 6 468 6 467 -53 -150
c-51 -143 -122 -333 -240 -640 l-53 -140 -64 -3 -64 -3 -27 73 c-15 40 -40
107 -56 148 -47 121 -249 652 -260 685 -8 22 -11 -100 -11 -437 l-1 -468 -95
0 -95 0 0 625 0 625 124 0 c90 0 125 -3 129 -12z m4017 -228 l0 -109 98 -3 97
-3 0 -75 0 -75 -95 0 -95 0 -3 -220 c-4 -269 1 -319 34 -352 23 -23 31 -25 97
-22 l72 4 3 -69 c2 -38 -1 -73 -5 -77 -5 -5 -45 -14 -89 -20 -139 -18 -249 17
-291 93 -16 29 -19 71 -23 348 l-5 315 -60 1 -60 1 0 74 0 74 63 3 62 3 0 109
0 110 100 0 100 0 0 -110z m-2305 -102 c105 -26 211 -111 259 -207 36 -70 56
-161 56 -256 0 -201 -85 -346 -250 -424 -65 -31 -86 -36 -168 -39 -169 -8
-298 49 -387 169 -62 84 -87 167 -88 294 -1 152 32 247 118 343 104 115 288
163 460 120z m1590 0 c135 -34 233 -128 287 -274 18 -49 21 -81 22 -184 0
-108 -3 -133 -24 -185 -45 -118 -118 -196 -228 -248 -90 -42 -227 -50 -329
-19 -119 37 -201 106 -256 217 -69 140 -67 348 5 489 27 52 100 130 152 159
104 61 243 78 371 45z m1580 0 c198 -50 319 -225 319 -458 -1 -173 -58 -299
-175 -385 -131 -96 -325 -114 -476 -43 -61 29 -153 115 -186 175 -74 136 -77
365 -8 501 89 175 312 264 526 210z m-2227 -94 l3 -91 -37 -1 c-59 -2 -140
-30 -175 -59 -56 -48 -59 -64 -59 -378 l0 -285 -105 0 -105 0 0 450 0 450 89
0 c99 0 101 -1 101 -83 l0 -37 37 41 c57 63 116 89 198 86 l50 -2 3 -91z"/>
<path d="M6645 5784 c-178 -28 -236 -55 -256 -123 -14 -47 0 -97 37 -132 20
-19 38 -24 92 -27 88 -5 138 9 191 55 55 47 71 85 71 173 0 81 12 76 -135 54z"/>
<path d="M4160 4558 c-107 -55 -162 -209 -131 -370 31 -154 124 -238 253 -226
168 17 259 272 169 480 -51 118 -182 171 -291 116z"/>
<path d="M5754 4561 c-93 -42 -139 -141 -138 -296 0 -107 17 -162 69 -231 51
-67 160 -92 240 -55 79 35 130 117 144 229 20 164 -46 322 -152 361 -43 17
-117 13 -163 -8z"/>
<path d="M7350 4569 c-52 -21 -93 -63 -124 -128 -28 -60 -31 -75 -31 -161 1
-116 21 -181 76 -243 119 -135 307 -85 370 98 20 58 18 218 -4 280 -22 65 -70
123 -121 146 -44 20 -126 24 -166 8z"/>
</g>
</svg>
